{
	"patcher" : 	{
		"fileversion" : 1,
		"appversion" : 		{
			"major" : 8,
			"minor" : 1,
			"revision" : 11,
			"architecture" : "x64",
			"modernui" : 1
		}
,
		"classnamespace" : "box",
		"rect" : [ 301.0, 292.0, 1346.0, 463.0 ],
		"bglocked" : 0,
		"openinpresentation" : 1,
		"default_fontsize" : 12.0,
		"default_fontface" : 0,
		"default_fontname" : "Arial",
		"gridonopen" : 1,
		"gridsize" : [ 15.0, 15.0 ],
		"gridsnaponopen" : 1,
		"objectsnaponopen" : 1,
		"statusbarvisible" : 2,
		"toolbarvisible" : 0,
		"lefttoolbarpinned" : 0,
		"toptoolbarpinned" : 0,
		"righttoolbarpinned" : 0,
		"bottomtoolbarpinned" : 0,
		"toolbars_unpinned_last_save" : 0,
		"tallnewobj" : 0,
		"boxanimatetime" : 200,
		"enablehscroll" : 1,
		"enablevscroll" : 0,
		"devicewidth" : 0.0,
		"description" : "",
		"digest" : "",
		"tags" : "",
		"style" : "",
		"subpatcher_template" : "",
		"assistshowspatchername" : 0,
		"boxes" : [ 			{
				"box" : 				{
					"id" : "obj-16",
					"maxclass" : "newobj",
					"numinlets" : 2,
					"numoutlets" : 1,
					"outlettype" : [ "int" ],
					"patching_rect" : [ 1190.0, 99.0, 29.5, 22.0 ],
					"text" : "- 22"
				}

			}
, 			{
				"box" : 				{
					"id" : "obj-11",
					"maxclass" : "newobj",
					"numinlets" : 0,
					"numoutlets" : 1,
					"outlettype" : [ "" ],
					"patching_rect" : [ 1190.0, 60.0, 50.0, 22.0 ],
					"text" : "r trigger"
				}

			}
, 			{
				"box" : 				{
					"id" : "obj-6",
					"maxclass" : "newobj",
					"numinlets" : 1,
					"numoutlets" : 1,
					"outlettype" : [ "bang" ],
					"patching_rect" : [ 1399.0, 38.747672557830811, 58.0, 22.0 ],
					"text" : "loadbang"
				}

			}
, 			{
				"box" : 				{
					"id" : "obj-9",
					"maxclass" : "message",
					"numinlets" : 2,
					"numoutlets" : 1,
					"outlettype" : [ "" ],
					"patching_rect" : [ 1399.0, 89.0, 56.0, 22.0 ],
					"text" : "selection"
				}

			}
, 			{
				"box" : 				{
					"allowreorder" : 0,
					"basictuning" : 440,
					"clipheight" : 20.0,
					"data" : 					{
						"clips" : [ 							{
								"absolutepath" : "23.wav",
								"filename" : "23.wav",
								"filekind" : "audiofile",
								"id" : "u461000962",
								"selection" : [ 0.0, 1.0 ],
								"loop" : 0,
								"content_state" : 								{

								}

							}
, 							{
								"absolutepath" : "24.wav",
								"filename" : "24.wav",
								"filekind" : "audiofile",
								"id" : "u813000952",
								"selection" : [ 0.0, 1.0 ],
								"loop" : 0,
								"content_state" : 								{

								}

							}
, 							{
								"absolutepath" : "25.wav",
								"filename" : "25.wav",
								"filekind" : "audiofile",
								"id" : "u869000953",
								"selection" : [ 0.0, 1.0 ],
								"loop" : 0,
								"content_state" : 								{

								}

							}
, 							{
								"absolutepath" : "26.wav",
								"filename" : "26.wav",
								"filekind" : "audiofile",
								"id" : "u485000954",
								"selection" : [ 0.0, 1.0 ],
								"loop" : 0,
								"content_state" : 								{

								}

							}
, 							{
								"absolutepath" : "27.wav",
								"filename" : "27.wav",
								"filekind" : "audiofile",
								"id" : "u981000955",
								"selection" : [ 0.0, 1.0 ],
								"loop" : 0,
								"content_state" : 								{

								}

							}
, 							{
								"absolutepath" : "28.wav",
								"filename" : "28.wav",
								"filekind" : "audiofile",
								"id" : "u160000956",
								"selection" : [ 0.0, 1.0 ],
								"loop" : 0,
								"content_state" : 								{

								}

							}
, 							{
								"absolutepath" : "29.wav",
								"filename" : "29.wav",
								"filekind" : "audiofile",
								"id" : "u134000957",
								"selection" : [ 0.0, 1.0 ],
								"loop" : 0,
								"content_state" : 								{

								}

							}
, 							{
								"absolutepath" : "30.wav",
								"filename" : "30.wav",
								"filekind" : "audiofile",
								"id" : "u508000958",
								"selection" : [ 0.0, 1.0 ],
								"loop" : 0,
								"content_state" : 								{

								}

							}
, 							{
								"absolutepath" : "31.wav",
								"filename" : "31.wav",
								"filekind" : "audiofile",
								"id" : "u863000959",
								"selection" : [ 0.0, 1.0 ],
								"loop" : 0,
								"content_state" : 								{

								}

							}
, 							{
								"absolutepath" : "32.wav",
								"filename" : "32.wav",
								"filekind" : "audiofile",
								"id" : "u608000960",
								"selection" : [ 0.0, 1.0 ],
								"loop" : 0,
								"content_state" : 								{

								}

							}
, 							{
								"absolutepath" : "33.wav",
								"filename" : "33.wav",
								"filekind" : "audiofile",
								"id" : "u230000961",
								"selection" : [ 0.0, 1.0 ],
								"loop" : 0,
								"content_state" : 								{

								}

							}
, 							{
								"absolutepath" : "34.wav",
								"filename" : "34.wav",
								"filekind" : "audiofile",
								"id" : "u012001005",
								"selection" : [ 0.0, 1.0 ],
								"loop" : 0,
								"content_state" : 								{

								}

							}
, 							{
								"absolutepath" : "35.wav",
								"filename" : "35.wav",
								"filekind" : "audiofile",
								"id" : "u954000995",
								"selection" : [ 0.0, 1.0 ],
								"loop" : 0,
								"content_state" : 								{

								}

							}
, 							{
								"absolutepath" : "36.wav",
								"filename" : "36.wav",
								"filekind" : "audiofile",
								"id" : "u129000996",
								"selection" : [ 0.0, 1.0 ],
								"loop" : 0,
								"content_state" : 								{

								}

							}
, 							{
								"absolutepath" : "37.wav",
								"filename" : "37.wav",
								"filekind" : "audiofile",
								"id" : "u742000997",
								"selection" : [ 0.0, 1.0 ],
								"loop" : 0,
								"content_state" : 								{

								}

							}
, 							{
								"absolutepath" : "38.wav",
								"filename" : "38.wav",
								"filekind" : "audiofile",
								"id" : "u922000998",
								"selection" : [ 0.0, 1.0 ],
								"loop" : 0,
								"content_state" : 								{

								}

							}
, 							{
								"absolutepath" : "39.wav",
								"filename" : "39.wav",
								"filekind" : "audiofile",
								"id" : "u388000999",
								"selection" : [ 0.0, 1.0 ],
								"loop" : 0,
								"content_state" : 								{

								}

							}
, 							{
								"absolutepath" : "40.wav",
								"filename" : "40.wav",
								"filekind" : "audiofile",
								"id" : "u097001000",
								"selection" : [ 0.0, 1.0 ],
								"loop" : 0,
								"content_state" : 								{

								}

							}
, 							{
								"absolutepath" : "41.wav",
								"filename" : "41.wav",
								"filekind" : "audiofile",
								"id" : "u367001001",
								"selection" : [ 0.0, 1.0 ],
								"loop" : 0,
								"content_state" : 								{

								}

							}
, 							{
								"absolutepath" : "42.wav",
								"filename" : "42.wav",
								"filekind" : "audiofile",
								"id" : "u686001002",
								"selection" : [ 0.0, 1.0 ],
								"loop" : 0,
								"content_state" : 								{

								}

							}
, 							{
								"absolutepath" : "43.wav",
								"filename" : "43.wav",
								"filekind" : "audiofile",
								"id" : "u148001003",
								"selection" : [ 0.0, 1.0 ],
								"loop" : 0,
								"content_state" : 								{

								}

							}
, 							{
								"absolutepath" : "44.wav",
								"filename" : "44.wav",
								"filekind" : "audiofile",
								"id" : "u027001004",
								"selection" : [ 0.0, 1.0 ],
								"loop" : 0,
								"content_state" : 								{

								}

							}
 ]
					}
,
					"expansion" : "grow",
					"followglobaltempo" : 0,
					"fontsize" : 11.0,
					"formantcorrection" : 0,
					"id" : "obj-4",
					"maxclass" : "playlist~",
					"mode" : "basic",
					"numinlets" : 1,
					"numoutlets" : 5,
					"originallength" : [ 0.0, "ticks" ],
					"originaltempo" : 120.0,
					"outlettype" : [ "signal", "signal", "signal", "", "dictionary" ],
					"parameter_enable" : 0,
					"patching_rect" : [ 1238.147832870483398, 166.905159175395966, 546.051764726638794, 440.0 ],
					"pitchcorrection" : 0,
					"presentation" : 1,
					"presentation_rect" : [ 956.682939767837524, 8.747672557830811, 374.682939767837524, 442.629928529262543 ],
					"quality" : "basic",
					"timestretch" : [ 0 ]
				}

			}
, 			{
				"box" : 				{
					"id" : "obj-41",
					"maxclass" : "comment",
					"numinlets" : 1,
					"numoutlets" : 0,
					"patching_rect" : [ 196.0, 468.0, 150.0, 20.0 ],
					"presentation" : 1,
					"presentation_rect" : [ 52.0, 383.877601087093353, 129.0, 20.0 ],
					"text" : "Route input to output",
					"textcolor" : [ 1.0, 1.0, 1.0, 1.0 ]
				}

			}
, 			{
				"box" : 				{
					"id" : "obj-34",
					"maxclass" : "newobj",
					"numinlets" : 2,
					"numoutlets" : 2,
					"outlettype" : [ "bang", "" ],
					"patching_rect" : [ 540.964011788368225, 473.0, 34.0, 22.0 ],
					"text" : "sel 1"
				}

			}
, 			{
				"box" : 				{
					"id" : "obj-30",
					"maxclass" : "message",
					"numinlets" : 2,
					"numoutlets" : 1,
					"outlettype" : [ "" ],
					"patching_rect" : [ 578.964011788368225, 514.0, 31.0, 22.0 ],
					"text" : "stop"
				}

			}
, 			{
				"box" : 				{
					"id" : "obj-25",
					"maxclass" : "message",
					"numinlets" : 2,
					"numoutlets" : 1,
					"outlettype" : [ "" ],
					"patching_rect" : [ 483.464011788368225, 522.552549123764038, 32.0, 22.0 ],
					"text" : "start"
				}

			}
, 			{
				"box" : 				{
					"fontsize" : 30.0,
					"id" : "obj-23",
					"maxclass" : "textbutton",
					"mode" : 1,
					"numinlets" : 1,
					"numoutlets" : 3,
					"outlettype" : [ "", "", "int" ],
					"parameter_enable" : 0,
					"patching_rect" : [ 313.591240406036377, 381.576939105987549, 143.0, 99.975610017776489 ],
					"presentation" : 1,
					"presentation_rect" : [ 367.591240406036377, 297.377601087093353, 141.0, 74.0 ],
					"text" : "ALL ON",
					"texton" : "ALL ON"
				}

			}
, 			{
				"box" : 				{
					"id" : "obj-20",
					"maxclass" : "newobj",
					"numinlets" : 1,
					"numoutlets" : 1,
					"outlettype" : [ "bang" ],
					"patching_rect" : [ 811.0, 66.747672557830811, 58.0, 22.0 ],
					"text" : "loadbang"
				}

			}
, 			{
				"box" : 				{
					"id" : "obj-19",
					"maxclass" : "message",
					"numinlets" : 2,
					"numoutlets" : 1,
					"outlettype" : [ "" ],
					"patching_rect" : [ 811.0, 117.0, 56.0, 22.0 ],
					"text" : "selection"
				}

			}
, 			{
				"box" : 				{
					"id" : "obj-12",
					"maxclass" : "toggle",
					"numinlets" : 1,
					"numoutlets" : 1,
					"outlettype" : [ "int" ],
					"parameter_enable" : 0,
					"patching_rect" : [ 228.0, 620.552549123764038, 42.0, 42.0 ],
					"presentation" : 1,
					"presentation_rect" : [ 18.841243386268616, 379.377601087093353, 29.0, 29.0 ]
				}

			}
, 			{
				"box" : 				{
					"id" : "obj-3",
					"maxclass" : "newobj",
					"numinlets" : 2,
					"numoutlets" : 1,
					"outlettype" : [ "signal" ],
					"patching_rect" : [ 307.341240406036377, 866.0, 39.0, 22.0 ],
					"text" : "gate~"
				}

			}
, 			{
				"box" : 				{
					"id" : "obj-2",
					"maxclass" : "newobj",
					"numinlets" : 2,
					"numoutlets" : 1,
					"outlettype" : [ "signal" ],
					"patching_rect" : [ 258.0, 866.0, 39.0, 22.0 ],
					"text" : "gate~"
				}

			}
, 			{
				"box" : 				{
					"annotation" : "",
					"clip_size" : 1,
					"display_range" : [ -70.0, 30.0 ],
					"fontname" : "Arial",
					"id" : "obj-14",
					"lastchannelcount" : 0,
					"maxclass" : "live.gain~",
					"numinlets" : 2,
					"numoutlets" : 5,
					"outlettype" : [ "signal", "signal", "", "float", "list" ],
					"parameter_enable" : 1,
					"patching_rect" : [ 313.591240406036377, 630.0, 74.0, 126.0 ],
					"presentation" : 1,
					"presentation_rect" : [ 102.5, 293.353207528591156, 50.0, 74.0 ],
					"prototypename" : "M4L.live.gain~.V.extended",
					"saved_attribute_attributes" : 					{
						"valueof" : 						{
							"parameter_initial" : [ 0.0 ],
							"parameter_initial_enable" : 1,
							"parameter_linknames" : 1,
							"parameter_longname" : "live.gain~[1]",
							"parameter_mmax" : 30.0,
							"parameter_mmin" : -70.0,
							"parameter_shortname" : "Input",
							"parameter_type" : 0,
							"parameter_unitstyle" : 4
						}

					}
,
					"varname" : "live.gain~[1]"
				}

			}
, 			{
				"box" : 				{
					"bgmode" : 0,
					"border" : 0,
					"clickthrough" : 0,
					"embed" : 1,
					"enablehscroll" : 0,
					"enablevscroll" : 0,
					"id" : "obj-10",
					"lockeddragscroll" : 0,
					"maxclass" : "bpatcher",
					"name" : "trigger interface.maxpat",
					"numinlets" : 0,
					"numoutlets" : 0,
					"offset" : [ 0.0, 0.0 ],
					"patcher" : 					{
						"fileversion" : 1,
						"appversion" : 						{
							"major" : 8,
							"minor" : 1,
							"revision" : 11,
							"architecture" : "x64",
							"modernui" : 1
						}
,
						"classnamespace" : "box",
						"rect" : [ 40.0, 82.0, 1454.0, 928.0 ],
						"bglocked" : 0,
						"openinpresentation" : 1,
						"default_fontsize" : 12.0,
						"default_fontface" : 0,
						"default_fontname" : "Arial",
						"gridonopen" : 1,
						"gridsize" : [ 15.0, 15.0 ],
						"gridsnaponopen" : 1,
						"objectsnaponopen" : 1,
						"statusbarvisible" : 2,
						"toolbarvisible" : 1,
						"lefttoolbarpinned" : 0,
						"toptoolbarpinned" : 0,
						"righttoolbarpinned" : 0,
						"bottomtoolbarpinned" : 0,
						"toolbars_unpinned_last_save" : 0,
						"tallnewobj" : 0,
						"boxanimatetime" : 200,
						"enablehscroll" : 1,
						"enablevscroll" : 1,
						"devicewidth" : 0.0,
						"description" : "",
						"digest" : "",
						"tags" : "",
						"style" : "",
						"subpatcher_template" : "",
						"assistshowspatchername" : 0,
						"boxes" : [ 							{
								"box" : 								{
									"id" : "obj-1",
									"maxclass" : "newobj",
									"numinlets" : 1,
									"numoutlets" : 2,
									"outlettype" : [ "int", "int" ],
									"patching_rect" : [ 534.696244716644287, 114.71962559223175, 47.0, 22.0 ],
									"text" : "unpack"
								}

							}
, 							{
								"box" : 								{
									"fontface" : 1,
									"fontsize" : 36.0,
									"id" : "obj-36",
									"maxclass" : "textbutton",
									"numinlets" : 1,
									"numoutlets" : 3,
									"outlettype" : [ "", "", "int" ],
									"outputmode" : 0,
									"parameter_enable" : 0,
									"patching_rect" : [ 385.79999977350235, 248.921503365039825, 128.000000417232513, 65.71962559223175 ],
									"presentation" : 1,
									"presentation_rect" : [ 11.748463710933493, 24.970501899719238, 142.509709555328755, 97.498247385025024 ],
									"style" : "default",
									"text" : "PLAY",
									"texton" : "PLAY"
								}

							}
, 							{
								"box" : 								{
									"fontsize" : 53.055254836282081,
									"id" : "obj-98",
									"maxclass" : "number",
									"maximum" : 45,
									"minimum" : 0,
									"numinlets" : 1,
									"numoutlets" : 2,
									"outlettype" : [ "", "bang" ],
									"parameter_enable" : 0,
									"patching_rect" : [ 638.799999356269836, 557.817099511623383, 183.0, 70.0 ],
									"presentation" : 1,
									"presentation_rect" : [ 11.748463710933493, 134.159716963768005, 142.509709555328755, 70.0 ]
								}

							}
, 							{
								"box" : 								{
									"fontsize" : 20.0,
									"id" : "obj-95",
									"maxclass" : "comment",
									"numinlets" : 1,
									"numoutlets" : 0,
									"patching_rect" : [ 812.692380905151367, 351.153875350952148, 248.0, 29.0 ],
									"presentation" : 1,
									"presentation_rect" : [ 224.660746237426679, 206.159716963768005, 134.0, 29.0 ],
									"text" : "Set next cue",
									"textcolor" : [ 1.0, 1.0, 1.0, 1.0 ]
								}

							}
, 							{
								"box" : 								{
									"fontsize" : 20.0,
									"id" : "obj-94",
									"maxclass" : "comment",
									"numinlets" : 1,
									"numoutlets" : 0,
									"patching_rect" : [ 797.692380905151367, 336.153875350952148, 248.0, 29.0 ],
									"presentation" : 1,
									"presentation_rect" : [ 11.59675920009613, 206.159716963768005, 120.0, 29.0 ],
									"text" : "Current cue",
									"textcolor" : [ 1.0, 1.0, 1.0, 1.0 ]
								}

							}
, 							{
								"box" : 								{
									"fontsize" : 20.0,
									"id" : "obj-91",
									"maxclass" : "comment",
									"numinlets" : 1,
									"numoutlets" : 0,
									"patching_rect" : [ 782.692380905151367, 321.153875350952148, 246.0, 29.0 ],
									"presentation" : 1,
									"presentation_rect" : [ 221.934585094451791, 84.748238384723663, 218.799999833106995, 29.0 ],
									"text" : "Use MIDI sustain pedal",
									"textcolor" : [ 1.0, 1.0, 1.0, 1.0 ]
								}

							}
, 							{
								"box" : 								{
									"id" : "obj-90",
									"maxclass" : "newobj",
									"numinlets" : 1,
									"numoutlets" : 1,
									"outlettype" : [ "bang" ],
									"patching_rect" : [ 439.871497631072998, 36.607142508029938, 58.0, 22.0 ],
									"text" : "loadbang"
								}

							}
, 							{
								"box" : 								{
									"id" : "obj-89",
									"maxclass" : "toggle",
									"numinlets" : 1,
									"numoutlets" : 1,
									"outlettype" : [ "int" ],
									"parameter_enable" : 0,
									"patching_rect" : [ 456.871497631072998, 81.71962559223175, 24.0, 24.0 ],
									"presentation" : 1,
									"presentation_rect" : [ 179.755694250465922, 80.629021167755127, 37.238434433937016, 37.238434433937016 ]
								}

							}
, 							{
								"box" : 								{
									"id" : "obj-86",
									"maxclass" : "newobj",
									"numinlets" : 2,
									"numoutlets" : 1,
									"outlettype" : [ "" ],
									"patching_rect" : [ 466.153890609741211, 140.00001335144043, 32.0, 22.0 ],
									"text" : "gate"
								}

							}
, 							{
								"box" : 								{
									"bgcolor" : [ 0.0, 0.0, 0.0, 0.0 ],
									"fontface" : 0,
									"fontsize" : 20.0,
									"id" : "obj-85",
									"maxclass" : "comment",
									"numinlets" : 1,
									"numoutlets" : 0,
									"patching_rect" : [ 767.692380905151367, 306.153875350952148, 249.0, 29.0 ],
									"presentation" : 1,
									"presentation_rect" : [ 221.934585094451791, 37.089719116687775, 136.0, 29.0 ],
									"style" : "comment001",
									"text" : "Use spacebar",
									"textcolor" : [ 1.0, 1.0, 1.0, 1.0 ]
								}

							}
, 							{
								"box" : 								{
									"fontsize" : 24.0,
									"id" : "obj-81",
									"maxclass" : "textbutton",
									"numinlets" : 1,
									"numoutlets" : 3,
									"outlettype" : [ "", "", "int" ],
									"parameter_enable" : 0,
									"patching_rect" : [ 494.696244716644287, 199.0, 100.0, 20.0 ],
									"presentation" : 1,
									"presentation_rect" : [ 370.066321015357971, 134.159716963768005, 147.884617805480957, 70.0 ],
									"text" : "Start over",
									"texton" : "Start over"
								}

							}
, 							{
								"box" : 								{
									"id" : "obj-77",
									"maxclass" : "newobj",
									"numinlets" : 1,
									"numoutlets" : 0,
									"patching_rect" : [ 428.871497631072998, 479.0, 52.0, 22.0 ],
									"text" : "s trigger"
								}

							}
, 							{
								"box" : 								{
									"id" : "obj-51",
									"maxclass" : "toggle",
									"numinlets" : 1,
									"numoutlets" : 1,
									"outlettype" : [ "int" ],
									"parameter_enable" : 0,
									"patching_rect" : [ 401.0, 88.71962559223175, 24.0, 24.0 ],
									"presentation" : 1,
									"presentation_rect" : [ 179.755694250465922, 32.970501899719238, 37.238434433937073, 37.238434433937073 ]
								}

							}
, 							{
								"box" : 								{
									"id" : "obj-49",
									"maxclass" : "newobj",
									"numinlets" : 2,
									"numoutlets" : 1,
									"outlettype" : [ "" ],
									"patching_rect" : [ 401.0, 130.0, 32.0, 22.0 ],
									"text" : "gate"
								}

							}
, 							{
								"box" : 								{
									"id" : "obj-27",
									"maxclass" : "newobj",
									"numinlets" : 1,
									"numoutlets" : 8,
									"outlettype" : [ "", "", "", "int", "int", "", "int", "" ],
									"patching_rect" : [ 513.696244716644287, 88.71962559223175, 92.5, 22.0 ],
									"text" : "midiparse"
								}

							}
, 							{
								"box" : 								{
									"id" : "obj-25",
									"maxclass" : "newobj",
									"numinlets" : 1,
									"numoutlets" : 1,
									"outlettype" : [ "int" ],
									"patching_rect" : [ 513.696244716644287, 55.070052623748779, 40.0, 22.0 ],
									"text" : "midiin"
								}

							}
, 							{
								"box" : 								{
									"id" : "obj-20",
									"maxclass" : "newobj",
									"numinlets" : 2,
									"numoutlets" : 2,
									"outlettype" : [ "bang", "" ],
									"patching_rect" : [ 534.696244716644287, 140.00001335144043, 41.0, 22.0 ],
									"text" : "sel 64"
								}

							}
, 							{
								"box" : 								{
									"id" : "obj-15",
									"maxclass" : "newobj",
									"numinlets" : 2,
									"numoutlets" : 2,
									"outlettype" : [ "bang", "" ],
									"patching_rect" : [ 320.032707452774048, 81.71962559223175, 41.0, 22.0 ],
									"text" : "sel 32"
								}

							}
, 							{
								"box" : 								{
									"id" : "obj-16",
									"maxclass" : "newobj",
									"numinlets" : 0,
									"numoutlets" : 4,
									"outlettype" : [ "int", "int", "int", "int" ],
									"patching_rect" : [ 320.032707452774048, 47.71962559223175, 50.5, 22.0 ],
									"text" : "key"
								}

							}
, 							{
								"box" : 								{
									"id" : "obj-76",
									"maxclass" : "incdec",
									"numinlets" : 1,
									"numoutlets" : 1,
									"outlettype" : [ "float" ],
									"parameter_enable" : 0,
									"patching_rect" : [ 607.0, 193.01709395647049, 20.0, 24.0 ],
									"presentation" : 1,
									"presentation_rect" : [ 177.089076697442238, 134.159716963768005, 42.571669539984555, 70.0 ]
								}

							}
, 							{
								"box" : 								{
									"id" : "obj-66",
									"maxclass" : "newobj",
									"numinlets" : 2,
									"numoutlets" : 1,
									"outlettype" : [ "int" ],
									"patching_rect" : [ 667.0, 254.0, 29.5, 22.0 ],
									"text" : "- 1"
								}

							}
, 							{
								"box" : 								{
									"fontsize" : 53.055254836282081,
									"id" : "obj-65",
									"maxclass" : "number",
									"maximum" : 45,
									"minimum" : 0,
									"numinlets" : 1,
									"numoutlets" : 2,
									"outlettype" : [ "", "bang" ],
									"parameter_enable" : 0,
									"patching_rect" : [ 667.0, 170.01709395647049, 183.0, 70.0 ],
									"presentation" : 1,
									"presentation_rect" : [ 224.660746237426679, 134.159716963768005, 136.109709459961323, 70.0 ]
								}

							}
, 							{
								"box" : 								{
									"id" : "obj-61",
									"maxclass" : "message",
									"numinlets" : 2,
									"numoutlets" : 1,
									"outlettype" : [ "" ],
									"patching_rect" : [ 607.0, 297.71962559223175, 29.5, 22.0 ],
									"text" : "$1"
								}

							}
, 							{
								"box" : 								{
									"id" : "obj-58",
									"maxclass" : "newobj",
									"numinlets" : 1,
									"numoutlets" : 1,
									"outlettype" : [ "" ],
									"patching_rect" : [ 503.196244716644287, 388.0, 72.0, 22.0 ],
									"text" : "prepend set"
								}

							}
, 							{
								"box" : 								{
									"id" : "obj-37",
									"maxclass" : "message",
									"numinlets" : 2,
									"numoutlets" : 1,
									"outlettype" : [ "" ],
									"patching_rect" : [ 545.196244716644287, 264.71962559223175, 29.5, 22.0 ],
									"text" : "1"
								}

							}
, 							{
								"box" : 								{
									"id" : "obj-42",
									"maxclass" : "message",
									"numinlets" : 2,
									"numoutlets" : 1,
									"outlettype" : [ "" ],
									"patching_rect" : [ 401.0, 425.495328307151794, 56.939239978790283, 22.0 ],
									"text" : "4"
								}

							}
, 							{
								"box" : 								{
									"id" : "obj-44",
									"maxclass" : "newobj",
									"numinlets" : 5,
									"numoutlets" : 4,
									"outlettype" : [ "int", "", "", "int" ],
									"patching_rect" : [ 503.196244716644287, 344.710282206535339, 75.0, 22.0 ],
									"text" : "counter 0 45"
								}

							}
, 							{
								"box" : 								{
									"id" : "obj-105",
									"maxclass" : "panel",
									"numinlets" : 1,
									"numoutlets" : 0,
									"patching_rect" : [ 575.600008577108383, 353.200005263090134, 128.0, 128.0 ],
									"presentation" : 1,
									"presentation_rect" : [ 0.650933802127838, 1.71962559223175, 539.200006127357483, 250.40000182390213 ]
								}

							}
 ],
						"lines" : [ 							{
								"patchline" : 								{
									"destination" : [ "obj-20", 0 ],
									"source" : [ "obj-1", 0 ]
								}

							}
, 							{
								"patchline" : 								{
									"destination" : [ "obj-49", 1 ],
									"source" : [ "obj-15", 0 ]
								}

							}
, 							{
								"patchline" : 								{
									"destination" : [ "obj-15", 0 ],
									"source" : [ "obj-16", 0 ]
								}

							}
, 							{
								"patchline" : 								{
									"destination" : [ "obj-86", 1 ],
									"source" : [ "obj-20", 0 ]
								}

							}
, 							{
								"patchline" : 								{
									"destination" : [ "obj-27", 0 ],
									"source" : [ "obj-25", 0 ]
								}

							}
, 							{
								"patchline" : 								{
									"destination" : [ "obj-1", 0 ],
									"source" : [ "obj-27", 2 ]
								}

							}
, 							{
								"patchline" : 								{
									"destination" : [ "obj-42", 0 ],
									"order" : 1,
									"source" : [ "obj-36", 0 ]
								}

							}
, 							{
								"patchline" : 								{
									"destination" : [ "obj-44", 0 ],
									"order" : 0,
									"source" : [ "obj-36", 0 ]
								}

							}
, 							{
								"patchline" : 								{
									"destination" : [ "obj-65", 0 ],
									"source" : [ "obj-37", 0 ]
								}

							}
, 							{
								"patchline" : 								{
									"destination" : [ "obj-77", 0 ],
									"order" : 1,
									"source" : [ "obj-42", 0 ]
								}

							}
, 							{
								"patchline" : 								{
									"destination" : [ "obj-98", 0 ],
									"order" : 0,
									"source" : [ "obj-42", 0 ]
								}

							}
, 							{
								"patchline" : 								{
									"destination" : [ "obj-58", 0 ],
									"source" : [ "obj-44", 0 ]
								}

							}
, 							{
								"patchline" : 								{
									"destination" : [ "obj-36", 0 ],
									"source" : [ "obj-49", 0 ]
								}

							}
, 							{
								"patchline" : 								{
									"destination" : [ "obj-49", 0 ],
									"source" : [ "obj-51", 0 ]
								}

							}
, 							{
								"patchline" : 								{
									"destination" : [ "obj-42", 0 ],
									"source" : [ "obj-58", 0 ]
								}

							}
, 							{
								"patchline" : 								{
									"destination" : [ "obj-44", 3 ],
									"source" : [ "obj-61", 0 ]
								}

							}
, 							{
								"patchline" : 								{
									"destination" : [ "obj-66", 0 ],
									"order" : 0,
									"source" : [ "obj-65", 0 ]
								}

							}
, 							{
								"patchline" : 								{
									"destination" : [ "obj-76", 0 ],
									"order" : 1,
									"source" : [ "obj-65", 0 ]
								}

							}
, 							{
								"patchline" : 								{
									"destination" : [ "obj-61", 0 ],
									"source" : [ "obj-66", 0 ]
								}

							}
, 							{
								"patchline" : 								{
									"destination" : [ "obj-65", 0 ],
									"source" : [ "obj-76", 0 ]
								}

							}
, 							{
								"patchline" : 								{
									"destination" : [ "obj-37", 0 ],
									"source" : [ "obj-81", 0 ]
								}

							}
, 							{
								"patchline" : 								{
									"destination" : [ "obj-36", 0 ],
									"source" : [ "obj-86", 0 ]
								}

							}
, 							{
								"patchline" : 								{
									"destination" : [ "obj-86", 0 ],
									"source" : [ "obj-89", 0 ]
								}

							}
, 							{
								"patchline" : 								{
									"destination" : [ "obj-89", 0 ],
									"source" : [ "obj-90", 0 ]
								}

							}
 ],
						"boxgroups" : [ 							{
								"boxes" : [ "obj-36", "obj-98", "obj-95", "obj-94", "obj-91", "obj-89", "obj-85", "obj-81", "obj-51", "obj-76", "obj-65", "obj-105" ]
							}
 ],
						"styles" : [ 							{
								"name" : "comment001",
								"parentstyle" : "",
								"multi" : 0
							}
 ]
					}
,
					"patching_rect" : [ 108.677574753761292, 66.747672557830811, 547.878048896789551, 255.341463327407837 ],
					"presentation" : 1,
					"presentation_rect" : [ 7.121951103210449, 8.747672557830811, 547.878048896789551, 255.341463327407837 ],
					"viewvisibility" : 1
				}

			}
, 			{
				"box" : 				{
					"id" : "obj-8",
					"maxclass" : "ezdac~",
					"numinlets" : 2,
					"numoutlets" : 0,
					"patching_rect" : [ 517.464011788368225, 765.816633880138397, 81.0, 81.0 ],
					"presentation" : 1,
					"presentation_rect" : [ 183.841243386268616, 293.377601087093353, 74.0, 74.0 ]
				}

			}
, 			{
				"box" : 				{
					"id" : "obj-7",
					"maxclass" : "ezadc~",
					"numinlets" : 1,
					"numoutlets" : 2,
					"outlettype" : [ "signal", "signal" ],
					"patching_rect" : [ 78.677574753761292, 456.576939105987549, 99.975610017776489, 99.975610017776489 ],
					"presentation" : 1,
					"presentation_rect" : [ 18.841243386268616, 293.353207528591156, 74.0, 74.0 ]
				}

			}
, 			{
				"box" : 				{
					"annotation" : "",
					"clip_size" : 1,
					"display_range" : [ -70.0, 30.0 ],
					"id" : "obj-5",
					"lastchannelcount" : 0,
					"maxclass" : "live.gain~",
					"numinlets" : 2,
					"numoutlets" : 5,
					"outlettype" : [ "signal", "signal", "", "float", "list" ],
					"parameter_enable" : 1,
					"patching_rect" : [ 483.464011788368225, 594.905159175395966, 115.0, 127.0 ],
					"presentation" : 1,
					"presentation_rect" : [ 269.560975551605225, 293.377601087093353, 51.0, 74.0 ],
					"prototypename" : "M4L.live.gain~.V.extended",
					"saved_attribute_attributes" : 					{
						"valueof" : 						{
							"parameter_initial" : [ 0.0 ],
							"parameter_initial_enable" : 1,
							"parameter_linknames" : 1,
							"parameter_longname" : "live.gain~",
							"parameter_mmax" : 30.0,
							"parameter_mmin" : -70.0,
							"parameter_shortname" : "Electronics",
							"parameter_type" : 0,
							"parameter_unitstyle" : 4
						}

					}
,
					"varname" : "live.gain~"
				}

			}
, 			{
				"box" : 				{
					"allowreorder" : 0,
					"basictuning" : 440,
					"clipheight" : 20.0,
					"data" : 					{
						"clips" : [ 							{
								"absolutepath" : "1.wav",
								"filename" : "1.wav",
								"filekind" : "audiofile",
								"id" : "u876000877",
								"selection" : [ 0.0, 1.0 ],
								"loop" : 0,
								"content_state" : 								{

								}

							}
, 							{
								"absolutepath" : "2.wav",
								"filename" : "2.wav",
								"filekind" : "audiofile",
								"id" : "u356000866",
								"selection" : [ 0.0, 1.0 ],
								"loop" : 0,
								"content_state" : 								{

								}

							}
, 							{
								"absolutepath" : "3.wav",
								"filename" : "3.wav",
								"filekind" : "audiofile",
								"id" : "u219000867",
								"selection" : [ 0.0, 1.0 ],
								"loop" : 0,
								"content_state" : 								{

								}

							}
, 							{
								"absolutepath" : "4.wav",
								"filename" : "4.wav",
								"filekind" : "audiofile",
								"id" : "u064000868",
								"selection" : [ 0.0, 1.0 ],
								"loop" : 0,
								"content_state" : 								{

								}

							}
, 							{
								"absolutepath" : "5.wav",
								"filename" : "5.wav",
								"filekind" : "audiofile",
								"id" : "u296000869",
								"selection" : [ 0.0, 1.0 ],
								"loop" : 0,
								"content_state" : 								{

								}

							}
, 							{
								"absolutepath" : "6.wav",
								"filename" : "6.wav",
								"filekind" : "audiofile",
								"id" : "u384000870",
								"selection" : [ 0.0, 1.0 ],
								"loop" : 0,
								"content_state" : 								{

								}

							}
, 							{
								"absolutepath" : "7.wav",
								"filename" : "7.wav",
								"filekind" : "audiofile",
								"id" : "u147000871",
								"selection" : [ 0.0, 1.0 ],
								"loop" : 0,
								"content_state" : 								{

								}

							}
, 							{
								"absolutepath" : "8.wav",
								"filename" : "8.wav",
								"filekind" : "audiofile",
								"id" : "u923000872",
								"selection" : [ 0.0, 1.0 ],
								"loop" : 0,
								"content_state" : 								{

								}

							}
, 							{
								"absolutepath" : "9.wav",
								"filename" : "9.wav",
								"filekind" : "audiofile",
								"id" : "u553000873",
								"selection" : [ 0.0, 1.0 ],
								"loop" : 0,
								"content_state" : 								{

								}

							}
, 							{
								"absolutepath" : "10.wav",
								"filename" : "10.wav",
								"filekind" : "audiofile",
								"id" : "u713000874",
								"selection" : [ 0.0, 1.0 ],
								"loop" : 0,
								"content_state" : 								{

								}

							}
, 							{
								"absolutepath" : "11.wav",
								"filename" : "11.wav",
								"filekind" : "audiofile",
								"id" : "u921000875",
								"selection" : [ 0.0, 1.0 ],
								"loop" : 0,
								"content_state" : 								{

								}

							}
, 							{
								"absolutepath" : "12.wav",
								"filename" : "12.wav",
								"filekind" : "audiofile",
								"id" : "u086000876",
								"selection" : [ 0.0, 1.0 ],
								"loop" : 0,
								"content_state" : 								{

								}

							}
, 							{
								"absolutepath" : "13.wav",
								"filename" : "13.wav",
								"filekind" : "audiofile",
								"id" : "u852000922",
								"selection" : [ 0.0, 1.0 ],
								"loop" : 0,
								"content_state" : 								{

								}

							}
, 							{
								"absolutepath" : "14.wav",
								"filename" : "14.wav",
								"filekind" : "audiofile",
								"id" : "u344000913",
								"selection" : [ 0.0, 1.0 ],
								"loop" : 0,
								"content_state" : 								{

								}

							}
, 							{
								"absolutepath" : "15.wav",
								"filename" : "15.wav",
								"filekind" : "audiofile",
								"id" : "u428000914",
								"selection" : [ 0.0, 1.0 ],
								"loop" : 0,
								"content_state" : 								{

								}

							}
, 							{
								"absolutepath" : "16.wav",
								"filename" : "16.wav",
								"filekind" : "audiofile",
								"id" : "u299000915",
								"selection" : [ 0.0, 1.0 ],
								"loop" : 0,
								"content_state" : 								{

								}

							}
, 							{
								"absolutepath" : "17.wav",
								"filename" : "17.wav",
								"filekind" : "audiofile",
								"id" : "u080000916",
								"selection" : [ 0.0, 1.0 ],
								"loop" : 0,
								"content_state" : 								{

								}

							}
, 							{
								"absolutepath" : "18.wav",
								"filename" : "18.wav",
								"filekind" : "audiofile",
								"id" : "u970000917",
								"selection" : [ 0.0, 1.0 ],
								"loop" : 0,
								"content_state" : 								{

								}

							}
, 							{
								"absolutepath" : "19.wav",
								"filename" : "19.wav",
								"filekind" : "audiofile",
								"id" : "u042000918",
								"selection" : [ 0.0, 1.0 ],
								"loop" : 0,
								"content_state" : 								{

								}

							}
, 							{
								"absolutepath" : "20.wav",
								"filename" : "20.wav",
								"filekind" : "audiofile",
								"id" : "u876000919",
								"selection" : [ 0.0, 1.0 ],
								"loop" : 0,
								"content_state" : 								{

								}

							}
, 							{
								"absolutepath" : "21.wav",
								"filename" : "21.wav",
								"filekind" : "audiofile",
								"id" : "u448000920",
								"selection" : [ 0.0, 1.0 ],
								"loop" : 0,
								"content_state" : 								{

								}

							}
, 							{
								"absolutepath" : "22.wav",
								"filename" : "22.wav",
								"filekind" : "audiofile",
								"id" : "u452000921",
								"selection" : [ 0.0, 1.0 ],
								"loop" : 0,
								"content_state" : 								{

								}

							}
 ]
					}
,
					"expansion" : "grow",
					"followglobaltempo" : 0,
					"fontsize" : 11.0,
					"formantcorrection" : 0,
					"id" : "obj-1",
					"maxclass" : "playlist~",
					"mode" : "basic",
					"numinlets" : 1,
					"numoutlets" : 5,
					"originallength" : [ 0.0, "ticks" ],
					"originaltempo" : 120.0,
					"outlettype" : [ "signal", "signal", "signal", "", "dictionary" ],
					"parameter_enable" : 0,
					"patching_rect" : [ 682.096068143844604, 287.905159175395966, 546.051764726638794, 440.0 ],
					"pitchcorrection" : 0,
					"presentation" : 1,
					"presentation_rect" : [ 565.0, 8.747672557830811, 377.682939767837524, 442.629928529262543 ],
					"quality" : "basic",
					"timestretch" : [ 0 ]
				}

			}
, 			{
				"box" : 				{
					"id" : "obj-122",
					"maxclass" : "newobj",
					"numinlets" : 0,
					"numoutlets" : 1,
					"outlettype" : [ "" ],
					"patching_rect" : [ 659.677574753761292, 21.86962366104126, 50.0, 22.0 ],
					"text" : "r trigger"
				}

			}
, 			{
				"box" : 				{
					"angle" : 270.0,
					"grad1" : [ 0.254901960784314, 0.254901960784314, 0.254901960784314, 1.0 ],
					"grad2" : [ 0.2, 0.2, 0.2, 1.0 ],
					"id" : "obj-39",
					"maxclass" : "panel",
					"mode" : 1,
					"numinlets" : 1,
					"numoutlets" : 0,
					"patching_rect" : [ 728.5, 464.0, 128.0, 128.0 ],
					"presentation" : 1,
					"presentation_rect" : [ 7.121951103210449, 282.0, 541.0, 142.0 ],
					"proportion" : 0.5
				}

			}
, 			{
				"box" : 				{
					"angle" : 270.0,
					"grad1" : [ 0.043137254901961, 0.043137254901961, 0.043137254901961, 0.14 ],
					"grad2" : [ 0.2, 0.2, 0.2, 1.0 ],
					"id" : "obj-27",
					"maxclass" : "panel",
					"mode" : 1,
					"numinlets" : 1,
					"numoutlets" : 0,
					"patching_rect" : [ 727.0, 470.5, 128.0, 128.0 ],
					"presentation" : 1,
					"presentation_rect" : [ 2.0, 0.999554961919785, 1340.0, 458.126163721084595 ],
					"proportion" : 0.5
				}

			}
, 			{
				"box" : 				{
					"id" : "obj-17",
					"maxclass" : "message",
					"numinlets" : 2,
					"numoutlets" : 1,
					"outlettype" : [ "" ],
					"patching_rect" : [ 895.096067999999946, 117.0, 35.0, 22.0 ],
					"text" : "clear"
				}

			}
 ],
		"lines" : [ 			{
				"patchline" : 				{
					"destination" : [ "obj-5", 1 ],
					"source" : [ "obj-1", 1 ]
				}

			}
, 			{
				"patchline" : 				{
					"destination" : [ "obj-5", 0 ],
					"source" : [ "obj-1", 0 ]
				}

			}
, 			{
				"patchline" : 				{
					"destination" : [ "obj-16", 0 ],
					"source" : [ "obj-11", 0 ]
				}

			}
, 			{
				"patchline" : 				{
					"destination" : [ "obj-2", 0 ],
					"order" : 1,
					"source" : [ "obj-12", 0 ]
				}

			}
, 			{
				"patchline" : 				{
					"destination" : [ "obj-3", 0 ],
					"order" : 0,
					"source" : [ "obj-12", 0 ]
				}

			}
, 			{
				"patchline" : 				{
					"destination" : [ "obj-1", 0 ],
					"source" : [ "obj-122", 0 ]
				}

			}
, 			{
				"patchline" : 				{
					"destination" : [ "obj-2", 1 ],
					"source" : [ "obj-14", 0 ]
				}

			}
, 			{
				"patchline" : 				{
					"destination" : [ "obj-3", 1 ],
					"source" : [ "obj-14", 1 ]
				}

			}
, 			{
				"patchline" : 				{
					"destination" : [ "obj-4", 0 ],
					"source" : [ "obj-16", 0 ]
				}

			}
, 			{
				"patchline" : 				{
					"destination" : [ "obj-1", 0 ],
					"order" : 1,
					"source" : [ "obj-17", 0 ]
				}

			}
, 			{
				"patchline" : 				{
					"destination" : [ "obj-4", 0 ],
					"order" : 0,
					"source" : [ "obj-17", 0 ]
				}

			}
, 			{
				"patchline" : 				{
					"destination" : [ "obj-1", 0 ],
					"source" : [ "obj-19", 0 ]
				}

			}
, 			{
				"patchline" : 				{
					"destination" : [ "obj-8", 0 ],
					"source" : [ "obj-2", 0 ]
				}

			}
, 			{
				"patchline" : 				{
					"destination" : [ "obj-19", 0 ],
					"source" : [ "obj-20", 0 ]
				}

			}
, 			{
				"patchline" : 				{
					"destination" : [ "obj-12", 0 ],
					"order" : 1,
					"source" : [ "obj-23", 0 ]
				}

			}
, 			{
				"patchline" : 				{
					"destination" : [ "obj-34", 0 ],
					"order" : 0,
					"source" : [ "obj-23", 0 ]
				}

			}
, 			{
				"patchline" : 				{
					"destination" : [ "obj-7", 0 ],
					"order" : 1,
					"source" : [ "obj-25", 0 ]
				}

			}
, 			{
				"patchline" : 				{
					"destination" : [ "obj-8", 0 ],
					"order" : 0,
					"source" : [ "obj-25", 0 ]
				}

			}
, 			{
				"patchline" : 				{
					"destination" : [ "obj-8", 1 ],
					"source" : [ "obj-3", 0 ]
				}

			}
, 			{
				"patchline" : 				{
					"destination" : [ "obj-7", 0 ],
					"order" : 1,
					"source" : [ "obj-30", 0 ]
				}

			}
, 			{
				"patchline" : 				{
					"destination" : [ "obj-8", 0 ],
					"order" : 0,
					"source" : [ "obj-30", 0 ]
				}

			}
, 			{
				"patchline" : 				{
					"destination" : [ "obj-25", 0 ],
					"source" : [ "obj-34", 0 ]
				}

			}
, 			{
				"patchline" : 				{
					"destination" : [ "obj-30", 0 ],
					"source" : [ "obj-34", 1 ]
				}

			}
, 			{
				"patchline" : 				{
					"destination" : [ "obj-5", 1 ],
					"source" : [ "obj-4", 1 ]
				}

			}
, 			{
				"patchline" : 				{
					"destination" : [ "obj-5", 0 ],
					"source" : [ "obj-4", 0 ]
				}

			}
, 			{
				"patchline" : 				{
					"destination" : [ "obj-8", 1 ],
					"source" : [ "obj-5", 1 ]
				}

			}
, 			{
				"patchline" : 				{
					"destination" : [ "obj-8", 0 ],
					"source" : [ "obj-5", 0 ]
				}

			}
, 			{
				"patchline" : 				{
					"destination" : [ "obj-9", 0 ],
					"source" : [ "obj-6", 0 ]
				}

			}
, 			{
				"patchline" : 				{
					"destination" : [ "obj-14", 1 ],
					"source" : [ "obj-7", 1 ]
				}

			}
, 			{
				"patchline" : 				{
					"destination" : [ "obj-14", 0 ],
					"source" : [ "obj-7", 0 ]
				}

			}
, 			{
				"patchline" : 				{
					"destination" : [ "obj-4", 0 ],
					"source" : [ "obj-9", 0 ]
				}

			}
 ],
		"parameters" : 		{
			"obj-14" : [ "live.gain~[1]", "Input", 0 ],
			"obj-5" : [ "live.gain~", "Electronics", 0 ],
			"parameterbanks" : 			{

			}
,
			"inherited_shortname" : 1
		}
,
		"dependency_cache" : [ 			{
				"name" : "1.wav",
				"bootpath" : "~/OneDrive/Desktop/Chorale/media",
				"patcherrelativepath" : "./media",
				"type" : "WAVE",
				"implicit" : 1
			}
, 			{
				"name" : "2.wav",
				"bootpath" : "~/OneDrive/Desktop/Chorale/media",
				"patcherrelativepath" : "./media",
				"type" : "WAVE",
				"implicit" : 1
			}
, 			{
				"name" : "3.wav",
				"bootpath" : "~/OneDrive/Desktop/Chorale/media",
				"patcherrelativepath" : "./media",
				"type" : "WAVE",
				"implicit" : 1
			}
, 			{
				"name" : "4.wav",
				"bootpath" : "~/OneDrive/Desktop/Chorale/media",
				"patcherrelativepath" : "./media",
				"type" : "WAVE",
				"implicit" : 1
			}
, 			{
				"name" : "5.wav",
				"bootpath" : "~/OneDrive/Desktop/Chorale/media",
				"patcherrelativepath" : "./media",
				"type" : "WAVE",
				"implicit" : 1
			}
, 			{
				"name" : "6.wav",
				"bootpath" : "~/OneDrive/Desktop/Chorale/media",
				"patcherrelativepath" : "./media",
				"type" : "WAVE",
				"implicit" : 1
			}
, 			{
				"name" : "7.wav",
				"bootpath" : "~/OneDrive/Desktop/Chorale/media",
				"patcherrelativepath" : "./media",
				"type" : "WAVE",
				"implicit" : 1
			}
, 			{
				"name" : "8.wav",
				"bootpath" : "~/OneDrive/Desktop/Chorale/media",
				"patcherrelativepath" : "./media",
				"type" : "WAVE",
				"implicit" : 1
			}
, 			{
				"name" : "9.wav",
				"bootpath" : "~/OneDrive/Desktop/Chorale/media",
				"patcherrelativepath" : "./media",
				"type" : "WAVE",
				"implicit" : 1
			}
, 			{
				"name" : "10.wav",
				"bootpath" : "~/OneDrive/Desktop/Chorale/media",
				"patcherrelativepath" : "./media",
				"type" : "WAVE",
				"implicit" : 1
			}
, 			{
				"name" : "11.wav",
				"bootpath" : "~/OneDrive/Desktop/Chorale/media",
				"patcherrelativepath" : "./media",
				"type" : "WAVE",
				"implicit" : 1
			}
, 			{
				"name" : "12.wav",
				"bootpath" : "~/OneDrive/Desktop/Chorale/media",
				"patcherrelativepath" : "./media",
				"type" : "WAVE",
				"implicit" : 1
			}
, 			{
				"name" : "13.wav",
				"bootpath" : "~/OneDrive/Desktop/Chorale/media",
				"patcherrelativepath" : "./media",
				"type" : "WAVE",
				"implicit" : 1
			}
, 			{
				"name" : "14.wav",
				"bootpath" : "~/OneDrive/Desktop/Chorale/media",
				"patcherrelativepath" : "./media",
				"type" : "WAVE",
				"implicit" : 1
			}
, 			{
				"name" : "15.wav",
				"bootpath" : "~/OneDrive/Desktop/Chorale/media",
				"patcherrelativepath" : "./media",
				"type" : "WAVE",
				"implicit" : 1
			}
, 			{
				"name" : "16.wav",
				"bootpath" : "~/OneDrive/Desktop/Chorale/media",
				"patcherrelativepath" : "./media",
				"type" : "WAVE",
				"implicit" : 1
			}
, 			{
				"name" : "17.wav",
				"bootpath" : "~/OneDrive/Desktop/Chorale/media",
				"patcherrelativepath" : "./media",
				"type" : "WAVE",
				"implicit" : 1
			}
, 			{
				"name" : "18.wav",
				"bootpath" : "~/OneDrive/Desktop/Chorale/media",
				"patcherrelativepath" : "./media",
				"type" : "WAVE",
				"implicit" : 1
			}
, 			{
				"name" : "19.wav",
				"bootpath" : "~/OneDrive/Desktop/Chorale/media",
				"patcherrelativepath" : "./media",
				"type" : "WAVE",
				"implicit" : 1
			}
, 			{
				"name" : "20.wav",
				"bootpath" : "~/OneDrive/Desktop/Chorale/media",
				"patcherrelativepath" : "./media",
				"type" : "WAVE",
				"implicit" : 1
			}
, 			{
				"name" : "21.wav",
				"bootpath" : "~/OneDrive/Desktop/Chorale/media",
				"patcherrelativepath" : "./media",
				"type" : "WAVE",
				"implicit" : 1
			}
, 			{
				"name" : "22.wav",
				"bootpath" : "~/OneDrive/Desktop/Chorale/media",
				"patcherrelativepath" : "./media",
				"type" : "WAVE",
				"implicit" : 1
			}
, 			{
				"name" : "23.wav",
				"bootpath" : "~/OneDrive/Desktop/Chorale/media",
				"patcherrelativepath" : "./media",
				"type" : "WAVE",
				"implicit" : 1
			}
, 			{
				"name" : "24.wav",
				"bootpath" : "~/OneDrive/Desktop/Chorale/media",
				"patcherrelativepath" : "./media",
				"type" : "WAVE",
				"implicit" : 1
			}
, 			{
				"name" : "25.wav",
				"bootpath" : "~/OneDrive/Desktop/Chorale/media",
				"patcherrelativepath" : "./media",
				"type" : "WAVE",
				"implicit" : 1
			}
, 			{
				"name" : "26.wav",
				"bootpath" : "~/OneDrive/Desktop/Chorale/media",
				"patcherrelativepath" : "./media",
				"type" : "WAVE",
				"implicit" : 1
			}
, 			{
				"name" : "27.wav",
				"bootpath" : "~/OneDrive/Desktop/Chorale/media",
				"patcherrelativepath" : "./media",
				"type" : "WAVE",
				"implicit" : 1
			}
, 			{
				"name" : "28.wav",
				"bootpath" : "~/OneDrive/Desktop/Chorale/media",
				"patcherrelativepath" : "./media",
				"type" : "WAVE",
				"implicit" : 1
			}
, 			{
				"name" : "29.wav",
				"bootpath" : "~/OneDrive/Desktop/Chorale/media",
				"patcherrelativepath" : "./media",
				"type" : "WAVE",
				"implicit" : 1
			}
, 			{
				"name" : "30.wav",
				"bootpath" : "~/OneDrive/Desktop/Chorale/media",
				"patcherrelativepath" : "./media",
				"type" : "WAVE",
				"implicit" : 1
			}
, 			{
				"name" : "31.wav",
				"bootpath" : "~/OneDrive/Desktop/Chorale/media",
				"patcherrelativepath" : "./media",
				"type" : "WAVE",
				"implicit" : 1
			}
, 			{
				"name" : "32.wav",
				"bootpath" : "~/OneDrive/Desktop/Chorale/media",
				"patcherrelativepath" : "./media",
				"type" : "WAVE",
				"implicit" : 1
			}
, 			{
				"name" : "33.wav",
				"bootpath" : "~/OneDrive/Desktop/Chorale/media",
				"patcherrelativepath" : "./media",
				"type" : "WAVE",
				"implicit" : 1
			}
, 			{
				"name" : "34.wav",
				"bootpath" : "~/OneDrive/Desktop/Chorale/media",
				"patcherrelativepath" : "./media",
				"type" : "WAVE",
				"implicit" : 1
			}
, 			{
				"name" : "35.wav",
				"bootpath" : "~/OneDrive/Desktop/Chorale/media",
				"patcherrelativepath" : "./media",
				"type" : "WAVE",
				"implicit" : 1
			}
, 			{
				"name" : "36.wav",
				"bootpath" : "~/OneDrive/Desktop/Chorale/media",
				"patcherrelativepath" : "./media",
				"type" : "WAVE",
				"implicit" : 1
			}
, 			{
				"name" : "37.wav",
				"bootpath" : "~/OneDrive/Desktop/Chorale/media",
				"patcherrelativepath" : "./media",
				"type" : "WAVE",
				"implicit" : 1
			}
, 			{
				"name" : "38.wav",
				"bootpath" : "~/OneDrive/Desktop/Chorale/media",
				"patcherrelativepath" : "./media",
				"type" : "WAVE",
				"implicit" : 1
			}
, 			{
				"name" : "39.wav",
				"bootpath" : "~/OneDrive/Desktop/Chorale/media",
				"patcherrelativepath" : "./media",
				"type" : "WAVE",
				"implicit" : 1
			}
, 			{
				"name" : "40.wav",
				"bootpath" : "~/OneDrive/Desktop/Chorale/media",
				"patcherrelativepath" : "./media",
				"type" : "WAVE",
				"implicit" : 1
			}
, 			{
				"name" : "41.wav",
				"bootpath" : "~/OneDrive/Desktop/Chorale/media",
				"patcherrelativepath" : "./media",
				"type" : "WAVE",
				"implicit" : 1
			}
, 			{
				"name" : "42.wav",
				"bootpath" : "~/OneDrive/Desktop/Chorale/media",
				"patcherrelativepath" : "./media",
				"type" : "WAVE",
				"implicit" : 1
			}
, 			{
				"name" : "43.wav",
				"bootpath" : "~/OneDrive/Desktop/Chorale/media",
				"patcherrelativepath" : "./media",
				"type" : "WAVE",
				"implicit" : 1
			}
, 			{
				"name" : "44.wav",
				"bootpath" : "~/OneDrive/Desktop/Chorale/media",
				"patcherrelativepath" : "./media",
				"type" : "WAVE",
				"implicit" : 1
			}
 ],
		"autosave" : 0
	}

}
